<svg xmlns="http://www.w3.org/2000/svg" viewBox="0 0 1600 900" role="img" aria-label="Voltron Nevera coaster">
  <defs>
    <linearGradient id="sky2" x1="0" y1="0" x2="0" y2="1">
      <stop offset="0" stop-color="#0c4a6e"/>
      <stop offset="1" stop-color="#0ea5e9"/>
    </linearGradient>
    <linearGradient id="track" x1="0" y1="0" x2="1" y2="0">
      <stop offset="0" stop-color="#facc15"/>
      <stop offset="1" stop-color="#f97316"/>
    </linearGradient>
  </defs>
  <rect width="1600" height="900" fill="url(#sky2)"/>
  <g fill="#fff" opacity=".15">
    <circle cx="180" cy="120" r="60"/>
    <circle cx="240" cy="110" r="70"/>
    <circle cx="310" cy="130" r="55"/>
  </g>
  <g fill="#0f172a" opacity=".4">
    <polygon points="0,700 200,560 380,640 580,520 760,620 940,500 1140,600 1340,510 1600,580 1600,900 0,900"/>
  </g>
  <path d="M0 720 C 200 540, 360 820, 540 580 S 880 480, 1040 660 S 1380 380, 1600 520"
        fill="none" stroke="url(#track)" stroke-width="14" stroke-linecap="round"/>
  <path d="M0 720 C 200 540, 360 820, 540 580 S 880 480, 1040 660 S 1380 380, 1600 520"
        fill="none" stroke="#fff" stroke-width="2" stroke-dasharray="14 18" opacity=".75"/>
  <g fill="#0f172a">
    <rect x="950" y="580" width="60" height="32" rx="6"/>
    <rect x="1010" y="586" width="50" height="26" rx="6"/>
    <rect x="1060" y="588" width="50" height="24" rx="6"/>
  </g>
  <text x="80" y="170" font-family="ui-sans-serif, system-ui, sans-serif" font-size="64" fill="#fff" font-weight="800" letter-spacing="-1">
    Voltron Nevera
  </text>
  <text x="80" y="220" font-family="ui-sans-serif, system-ui, sans-serif" font-size="28" fill="#fff" opacity=".85">
    Europa-Park, Rust — one year in
  </text>
</svg>
