<?xml version="1.0" encoding="UTF-8" standalone="no"?>
<!DOCTYPE svg PUBLIC "-//W3C//DTD SVG 1.1//EN" "http://www.w3.org/Graphics/SVG/1.1/DTD/svg11.dtd">
<svg width="100%" height="100%" viewBox="0 0 144 144" version="1.1" xmlns="http://www.w3.org/2000/svg" xmlns:xlink="http://www.w3.org/1999/xlink" xml:space="preserve" xmlns:serif="http://www.serif.com/" style="fill-rule:evenodd;clip-rule:evenodd;stroke-linejoin:round;stroke-miterlimit:2;">
    <g transform="matrix(1,0,0,1,-34851,-36057)">
        <g id="dark---48" serif:id="dark - 48" transform="matrix(0.0963885,0,0,0.145295,31456.9,31291.4)">
            <rect x="35213.1" y="32799.2" width="1493.95" height="991.089" style="fill:none;"/>
            <g transform="matrix(0.106764,0.0911358,-0.626538,0.323025,42375.2,28253.6)">
                <path d="M10987.8,12605.3C10953.6,12617.3 10871.4,12618.1 10879.3,12597.1C10887.2,12576.1 10980.6,12516.9 11035.3,12479.3C11571.7,12110.4 12355.2,11908.5 13186.5,11994.3C14449.4,12124.7 13885,12436.7 13134.4,12268.1C12797.8,12192.5 12427.6,12172.9 12050.3,12224.4C11730.3,12268.1 11437.1,12360.6 11186.6,12489.5C11116.9,12525.4 11039.1,12587.4 10987.8,12605.3Z" style="fill:rgb(33,145,211);"/>
            </g>
            <g transform="matrix(-0.230273,-1.87081e-17,2.44397e-17,-0.132391,36892.7,35106.4)">
                <path d="M3953.73,10512.6C4003.17,10440.8 4058.82,10437.7 4107.04,10505.6C4477.87,11027.4 6077.52,13354.6 6077.52,14572.1C6077.52,15863.2 5169.07,16911.5 4050.1,16911.5C2931.14,16911.5 2022.68,15863.2 2022.68,14572.1C2022.68,13359.1 3585.21,11047.8 3953.73,10512.6ZM4050.1,16300.9C4885.06,16300.9 5562.94,15518.7 5562.94,14555.3C5562.94,13591.8 4885.06,12809.6 4050.1,12809.6C3215.15,12809.6 2537.27,13591.8 2537.27,14555.3C2537.27,15518.7 3215.15,16300.9 4050.1,16300.9Z" style="fill:rgb(252,252,252);"/>
            </g>
            <g transform="matrix(0.273423,0,0,0.290647,31124.3,30745.5)">
                <path d="M16947.8,8630.61L16844.3,8554.79L16844.3,8221.64C16844.3,8192.27 16882.5,8168.42 16929.5,8168.42L17088.6,8168.42C17135.6,8168.42 17173.8,8192.27 17173.8,8221.64L17173.8,8372.71L17354.2,8372.71L17354.2,8194.25C17354.2,8165.24 17392,8141.69 17438.5,8141.69L17595.5,8141.69C17642,8141.69 17679.7,8165.24 17679.7,8194.25L17679.7,8372.71L17859.5,8372.71L17859.5,8118.04L18100.9,8118.04C18169.1,8222.09 18301.7,8308.95 18527.6,8370.93L18527.6,8473.51L18486.2,8533.14C18197.3,8512.46 17693.2,8542.72 16947.8,8630.61Z" style="fill:rgb(33,145,212);"/>
            </g>
        </g>
    </g>
</svg>
