<?xml version="1.0" encoding="UTF-8" standalone="no"?>
<!DOCTYPE svg PUBLIC "-//W3C//DTD SVG 1.1//EN" "http://www.w3.org/Graphics/SVG/1.1/DTD/svg11.dtd">
<svg width="100%" height="100%" viewBox="0 0 3072 3072" version="1.1" xmlns="http://www.w3.org/2000/svg" xmlns:xlink="http://www.w3.org/1999/xlink" xml:space="preserve" xmlns:serif="http://www.serif.com/" style="fill-rule:evenodd;clip-rule:evenodd;stroke-linejoin:round;stroke-miterlimit:2;">
    <g transform="matrix(1,0,0,1,-31479,-36057)">
        <g id="dark---1024" serif:id="dark - 1024" transform="matrix(0.567696,0,0,0.74202,13608.1,11803.8)">
            <rect x="31479.7" y="32685.4" width="5411.34" height="4140.05" style="fill:none;"/>
            <g id="park.fan" transform="matrix(0.265844,0,0,0.203389,30470,31289.7)">
                <g transform="matrix(1.16403,0,0,0.963411,-2621.27,1673.79)">
                    <path d="M14053.9,23611.4L14053.9,24438.1L13544.5,24438.1L13544.5,21757.4L14053.9,21757.4L14053.9,23297.9L14565.9,22489.7L15236.1,22489.7L14616.7,23388L15276,24438.1L14608.7,24438.1L14082.1,23522.8L14053.9,23611.4Z" style="fill:rgb(252,252,252);"/>
                </g>
                <g transform="matrix(0.957782,0,0,1.10488,376.075,-2652.26)">
                    <path d="M7346.77,25052.6L7346.77,25928.7L6727.73,25928.7L6727.73,23509.3L7346.77,23509.3L7346.77,23704.1C7512.6,23557.2 7732.74,23467.7 7974.17,23467.7C8489.54,23467.7 8907.95,23875.7 8907.95,24378.3C8907.95,24880.9 8489.54,25289 7974.17,25289C7732.74,25289 7512.6,25199.4 7346.77,25052.6ZM7346.77,24509.5C7410.4,24674.1 7584.13,24792.3 7788.24,24792.3C8046.2,24792.3 8255.62,24603.5 8255.62,24370.9C8255.62,24138.3 8046.2,23949.5 7788.24,23949.5C7584.13,23949.5 7410.4,24067.7 7346.77,24232.3L7346.77,24509.5Z" style="fill:rgb(252,252,252);"/>
                </g>
                <g transform="matrix(0.957782,0,0,1.10488,2349.91,-2652.26)">
                    <path d="M8598.43,25055.3C8432.97,25200.6 8214.07,25289 7974.17,25289C7458.8,25289 7040.38,24880.9 7040.38,24378.3C7040.38,23875.7 7458.8,23467.7 7974.17,23467.7C8214.07,23467.7 8432.97,23556.1 8598.43,23701.3L8598.43,23509.3L9217.48,23509.3L9217.48,25224.5L8598.43,25224.5L8598.43,25055.3ZM8598.43,24276C8547.65,24092.8 8363.76,23956.9 8144.97,23956.9C7887.01,23956.9 7677.59,24145.8 7677.59,24378.3C7677.59,24610.9 7887.01,24799.7 8144.97,24799.7C8363.76,24799.7 8547.65,24663.9 8598.43,24480.7L8598.43,24276Z" style="fill:rgb(252,252,252);"/>
                </g>
                <g transform="matrix(1.0524,0,0,1.31266,-640.468,-5513.95)">
                    <path d="M12226.7,22735.4L12226.7,23411.7L11663.3,23411.7L11663.3,21968L12226.7,21968L12226.7,22284.9C12257.2,22199 12295.7,22130.8 12342.1,22080.5C12424.6,21991.1 12538.4,21946.4 12683.4,21946.4L12863.7,21946.4L12863.7,22409.8L12680.4,22409.8C12576.6,22409.8 12491,22423.3 12423.7,22450.4C12356.4,22477.5 12306,22520.9 12272.5,22580.5C12249,22622.2 12233.8,22673.8 12226.7,22735.4Z" style="fill:rgb(252,252,252);"/>
                </g>
                <g transform="matrix(4.31204,0,0,4.31204,-10176.6,-83253)">
                    <path d="M6179.04,25161.5L6179.04,24655.7C6179.04,24623.1 6188.35,24597 6206.97,24577.4C6225.59,24557.8 6254.11,24548 6292.51,24548L6357.89,24548L6357.89,24598.7L6297.11,24598.7C6276,24598.7 6260.54,24604.1 6250.75,24615C6240.96,24625.8 6236.06,24640.8 6236.06,24660L6236.06,25161.5L6179.04,25161.5ZM6114.24,24754.2L6114.24,24703.5L6353.85,24703.5L6353.85,24754.2L6114.24,24754.2Z" style="fill:rgb(33,145,211);fill-rule:nonzero;"/>
                </g>
                <g transform="matrix(4.31204,0,0,4.31204,-10176.6,-83253)">
                    <path d="M6559.2,25171.8C6513.12,25171.8 6476.25,25160.8 6448.6,25138.7C6420.96,25116.6 6407.13,25086.4 6407.13,25048C6407.13,25010.3 6419.18,24980.5 6443.28,24958.6C6467.38,24936.6 6502.85,24921.3 6549.69,24912.6L6719.32,24880.9C6719.32,24835.2 6709.48,24801.6 6689.8,24780.1C6670.12,24758.6 6640.41,24747.9 6600.67,24747.9C6565.53,24747.9 6537.6,24756.1 6516.86,24772.7C6496.12,24789.2 6482.4,24812.8 6475.67,24843.5L6414.91,24838.6C6423.36,24794.2 6443.66,24758.9 6475.82,24732.6C6507.98,24706.3 6549.59,24693.2 6600.67,24693.2C6657.5,24693.2 6700.99,24709.3 6731.13,24741.5C6761.27,24773.8 6776.34,24819.9 6776.34,24879.8L6776.34,25071C6776.34,25086.2 6778.79,25096.5 6783.69,25102C6788.58,25107.5 6796.32,25110.2 6806.88,25110.2L6820.7,25110.2L6820.7,25161.5C6818.4,25162 6815.18,25162.4 6811.05,25162.6C6806.92,25162.8 6802.55,25162.9 6797.94,25162.9C6779.9,25162.9 6764.97,25159.8 6753.16,25153.5C6741.36,25147.3 6732.67,25136.9 6727.1,25122.4C6721.54,25107.9 6718.75,25088.1 6718.75,25063L6726.23,25064.1C6721.05,25083.9 6710.49,25102 6694.55,25118.5C6678.62,25135.1 6658.89,25148.1 6635.37,25157.6C6611.85,25167.1 6586.46,25171.8 6559.2,25171.8ZM6564.38,25120.6C6595.87,25120.6 6623.18,25114.3 6646.32,25101.7C6669.45,25089.1 6687.4,25072 6700.17,25050.3C6712.94,25028.6 6719.32,25004.2 6719.32,24977.1L6719.32,24931.3L6561.51,24961C6528.67,24967.2 6504.72,24976.9 6489.64,24990.1C6474.57,25003.3 6467.03,25020.9 6467.03,25042.8C6467.03,25067.6 6475.62,25086.7 6492.81,25100.3C6510,25113.8 6533.85,25120.6 6564.38,25120.6Z" style="fill:rgb(33,145,211);fill-rule:nonzero;"/>
                </g>
                <g transform="matrix(4.31204,0,0,4.31204,-10176.6,-83253)">
                    <path d="M6907.11,25161.5L6907.11,24703.5L6959.51,24703.5L6961.82,24823.3L6954.62,24818.2C6959.42,24790.1 6969.16,24766.9 6983.85,24748.5C6998.54,24730 7016.54,24716.2 7037.85,24707C7059.16,24697.8 7082.3,24693.2 7107.26,24693.2C7142.2,24693.2 7171.01,24700.9 7193.66,24716.5C7216.32,24732 7233.17,24752.9 7244.21,24779.1C7255.24,24805.3 7260.77,24834.6 7260.77,24866.8L7260.77,25161.5L7203.74,25161.5L7203.74,24887.6C7203.74,24857.8 7200.09,24832.3 7192.8,24811C7185.5,24789.6 7173.89,24773.2 7157.95,24761.7C7142.01,24750.2 7121.08,24744.4 7095.16,24744.4C7055.99,24744.4 7024.36,24757 7000.27,24782.3C6976.18,24807.5 6964.13,24842.6 6964.13,24887.6L6964.13,25161.5L6907.11,25161.5Z" style="fill:rgb(33,145,211);fill-rule:nonzero;"/>
                </g>
                <g transform="matrix(0.931908,0,0,0.931908,1770.82,-149.934)">
                    <circle cx="14910.5" cy="26935.2" r="362.478" style="fill:url(#_Linear1);"/>
                </g>
            </g>
            <g id="Icon" transform="matrix(0.265844,0,0,0.203389,30504.4,31289.9)">
                <g id="Rollercoaster">
                    <g id="Rollercoaster1" serif:id="Rollercoaster" transform="matrix(0.432605,0.665613,-3.03568,1.97299,49720.2,-22904.3)">
                        <path d="M10987.8,12605.3C10953.6,12617.3 10871.4,12618.1 10879.3,12597.1C10887.2,12576.1 10980.6,12516.9 11035.3,12479.3C11571.7,12110.4 12355.2,11908.5 13186.5,11994.3C14449.4,12124.7 15383.1,12899.2 15284,13778.6C15190.5,14608.8 14170.3,15322.2 12807.6,15326.8C12283,15328.6 11867.3,15113.9 11678.9,14998.8C11632.5,14970.5 11590.9,14948.4 11582.8,14936.7C11574.7,14925 11614.9,14924.1 11630.3,14928.5C11656.5,14936 11703.6,14965.7 11739.9,14981.9C12137.4,15159.2 12507,15152 12800.1,15121.2C13957.6,14999.9 14777.5,14248.8 14594.8,13440.3C14412.7,12633.8 13268.9,12058.1 12050.3,12224.4C11730.3,12268.1 11437.1,12360.6 11186.6,12489.5C11116.9,12525.4 11039.1,12587.4 10987.8,12605.3Z" style="fill:url(#_Linear2);"/>
                    </g>
                    <g id="Car" transform="matrix(0.932201,0,0,1.4937,1150.4,-3999.06)">
                        <path d="M16947.8,8630.61L16844.3,8554.79L16844.3,8221.64C16844.3,8192.27 16882.5,8168.42 16929.5,8168.42L17088.6,8168.42C17135.6,8168.42 17173.8,8192.27 17173.8,8221.64L17173.8,8372.71L17354.2,8372.71L17354.2,8194.25C17354.2,8165.24 17392,8141.69 17438.5,8141.69L17595.5,8141.69C17642,8141.69 17679.7,8165.24 17679.7,8194.25L17679.7,8372.71L17859.5,8372.71L17859.5,8118.04L18100.9,8118.04C18169.1,8222.09 18301.7,8308.95 18527.6,8370.93L18527.6,8473.51L18486.2,8533.14C18197.3,8512.46 17693.2,8542.72 16947.8,8630.61Z" style="fill:rgb(33,145,211);"/>
                    </g>
                </g>
                <g id="diagram">
                    <g transform="matrix(0.953278,0,0,0.992609,548.981,116.375)">
                        <path d="M15081,13178.4L15081,10441.6L16178.3,10441.6L16178.3,12354.6C15867.2,12611.4 15107.8,13160 15081,13178.4ZM16178.3,13719.6L16178.3,14893C15865,15176.4 15492.7,15400.2 15081,15545.6L15081,14453C15464.5,14215.1 15831.5,13969.3 16178.3,13719.6Z" style="fill:url(#_Linear3);"/>
                    </g>
                    <g transform="matrix(0.953278,0,0,0.992609,548.981,116.375)">
                        <path d="M13428.9,14180.9L13428.9,11654L14526.2,11654L14526.2,13543.5C14160.3,13774.4 13792.3,13987.6 13428.9,14180.9ZM14526.2,14784.6L14526.2,15688.8C14345.4,15719.1 14159.3,15734.9 13969.5,15734.9C13785.3,15734.9 13604.7,15720 13428.9,15691.4L13428.9,15368.3C13791,15191.4 14158.6,14996.2 14526.2,14784.6Z" style="fill:url(#_Linear4);"/>
                    </g>
                    <g transform="matrix(0.953278,0,0,0.992609,548.981,116.375)">
                        <path d="M11799.2,14927.3C11782.6,14912.7 11766.2,14898.1 11749.9,14883.2L11749.9,12749.7L12849.8,12749.7L12849.8,14474.1C12489.1,14647.4 12136.7,14799.2 11799.2,14927.3Z" style="fill:url(#_Linear5);"/>
                    </g>
                </g>
                <g id="marker" transform="matrix(-2.25582,-2.76258e-16,2.39418e-16,-1.95499,23002.1,41144.7)">
                    <path d="M5694.63,13193.3C5921.05,13702 6077.52,14191.3 6077.52,14572.1C6077.52,15863.2 5169.07,16911.5 4050.1,16911.5C3314.25,16911.5 2669.43,16458.2 2314.15,15780.5C2388.18,15614.7 2504.63,15429.4 2656.34,15234.8C2886.19,15861 3423.98,16300.9 4050.1,16300.9C4885.06,16300.9 5562.94,15518.7 5562.94,14555.3C5562.94,14087.1 5402.86,13661.7 5142.47,13348.1C5347.48,13266.8 5534.49,13214.2 5694.63,13193.3ZM2078.65,15119.8C2042.06,14944.1 2022.68,14760.7 2022.68,14572.1C2022.68,13359.1 3585.21,11047.8 3953.73,10512.6C4003.17,10440.8 4058.82,10437.7 4107.04,10505.6C4322.49,10808.8 4952.74,11721.4 5443.07,12671.7C5200.48,12715.8 4924.73,12807.7 4631.29,12943.3C4452.32,12857.2 4255.99,12809.6 4050.1,12809.6C3226.69,12809.6 2556.04,13570.4 2537.66,14515.4C2355.87,14720.1 2201.24,14924.1 2078.65,15119.8Z" style="fill:rgb(252,252,252);"/>
                </g>
            </g>
        </g>
    </g>
    <defs>
        <linearGradient id="_Linear1" x1="0" y1="0" x2="1" y2="0" gradientUnits="userSpaceOnUse" gradientTransform="matrix(724.957,0,0,724.957,14548.1,26935.2)"><stop offset="0" style="stop-color:rgb(81,204,100);stop-opacity:1"/><stop offset="0.74" style="stop-color:rgb(74,177,101);stop-opacity:1"/><stop offset="1" style="stop-color:rgb(38,165,88);stop-opacity:1"/></linearGradient>
        <linearGradient id="_Linear2" x1="0" y1="0" x2="1" y2="0" gradientUnits="userSpaceOnUse" gradientTransform="matrix(-5133.51,291.114,-1327.69,-1125.59,15231.4,13608)"><stop offset="0" style="stop-color:rgb(35,152,219);stop-opacity:1"/><stop offset="0.04" style="stop-color:rgb(35,152,219);stop-opacity:1"/><stop offset="1" style="stop-color:rgb(34,145,214);stop-opacity:1"/></linearGradient>
        <linearGradient id="_Linear3" x1="0" y1="0" x2="1" y2="0" gradientUnits="userSpaceOnUse" gradientTransform="matrix(3.09497e-13,4854.19,-5054.47,2.97234e-13,15629.7,10441.6)"><stop offset="0" style="stop-color:rgb(81,204,100);stop-opacity:1"/><stop offset="0.74" style="stop-color:rgb(74,177,101);stop-opacity:1"/><stop offset="1" style="stop-color:rgb(38,165,88);stop-opacity:1"/></linearGradient>
        <linearGradient id="_Linear4" x1="0" y1="0" x2="1" y2="0" gradientUnits="userSpaceOnUse" gradientTransform="matrix(2.60192e-13,4080.88,-4249.25,2.49882e-13,13969.5,11654)"><stop offset="0" style="stop-color:rgb(18,190,240);stop-opacity:1"/><stop offset="0.6" style="stop-color:rgb(20,146,235);stop-opacity:1"/><stop offset="1" style="stop-color:rgb(22,101,230);stop-opacity:1"/></linearGradient>
        <linearGradient id="_Linear5" x1="0" y1="0" x2="1" y2="0" gradientUnits="userSpaceOnUse" gradientTransform="matrix(1.90333e-13,2985.2,-3108.37,1.82791e-13,12299.8,12749.7)"><stop offset="0" style="stop-color:rgb(81,204,100);stop-opacity:1"/><stop offset="0.36" style="stop-color:rgb(65,187,96);stop-opacity:1"/><stop offset="1" style="stop-color:rgb(49,169,92);stop-opacity:1"/></linearGradient>
    </defs>
</svg>
