<svg xmlns="http://www.w3.org/2000/svg" viewBox="0 0 800 600"><rect width="800" height="600" fill="#020617"/><g><polygon points="380,260 340,340 420,340" fill="#1e293b"/><rect x="340" y="340" width="80" height="200" fill="#1e293b"/></g><g fill="#fde68a"><circle cx="200" cy="180" r="3"/><circle cx="220" cy="200" r="2"/><circle cx="240" cy="170" r="2"/><circle cx="180" cy="220" r="2"/><circle cx="600" cy="180" r="3"/><circle cx="620" cy="220" r="2"/><circle cx="640" cy="170" r="2"/><circle cx="580" cy="200" r="2"/></g><g fill="#fb7185"><circle cx="200" cy="180" r="20" opacity=".5"/><circle cx="600" cy="180" r="20" opacity=".5"/></g><g stroke="#fff" stroke-width="1.5" opacity=".7"><line x1="200" y1="180" x2="170" y2="120"/><line x1="200" y1="180" x2="230" y2="120"/><line x1="200" y1="180" x2="240" y2="160"/><line x1="200" y1="180" x2="160" y2="160"/><line x1="600" y1="180" x2="570" y2="120"/><line x1="600" y1="180" x2="630" y2="120"/></g><rect y="540" width="800" height="60" fill="#020617"/><text x="40" y="60" font-family="sans-serif" font-size="22" fill="#fff" font-weight="700">Fireworks · 21:00</text></svg>
